<svg width="64" height="64" viewBox="0 0 64 64" fill="none" xmlns="http://www.w3.org/2000/svg">
<path fill-rule="evenodd" clip-rule="evenodd" d="M10.6698 0H53.3302C59.2204 0 64 4.77844 64 10.6667V53.3333C64 59.2216 59.2204 64 53.3302 64H10.6698C4.76092 64 0 59.2216 0 53.3333V10.6667C0 4.77844 4.76092 0 10.6698 0Z" fill="#003399"/>
<path fill-rule="evenodd" clip-rule="evenodd" d="M5.30045 53.2941H10.2451V32.0546H5.30045V53.2941Z" fill="#FFFF00"/>
<path fill-rule="evenodd" clip-rule="evenodd" d="M35.2867 47.4315C35.2867 47.6937 35.2678 47.9748 35.2117 48.237C35.2117 48.2745 35.1743 48.3868 35.1554 48.4055C35.1368 48.4243 35.1368 48.4617 35.118 48.4804C34.6873 49.5106 33.5073 50.5031 31.9529 50.5031C30.5855 50.5031 29.6491 49.7914 29.6491 48.4617C29.6491 46.9632 30.9227 46.1954 32.833 45.8958C33.2825 45.8208 33.7695 45.7834 34.2939 45.7645C34.6124 45.7459 34.9307 45.7459 35.268 45.7459V47.4315H35.2867ZM32.4585 36.9242C29.4243 36.9242 27.158 37.7108 25.9219 38.4225L26.8583 41.5504C27.9821 40.8761 29.8925 40.2768 31.6344 40.2768C34.5375 40.2768 35.1368 41.7377 35.1368 42.4868V42.6555C28.7126 42.6367 24.7419 44.7157 24.7419 48.8363C24.7419 51.2525 26.6711 53.7059 30.211 53.7059C32.3275 53.7059 34.1066 52.9381 35.1931 51.6645H35.2492L35.7924 53.3127H39.8193V43.8916C39.8193 40.0521 37.9276 36.9242 32.4585 36.9242Z" fill="#FFFF00"/>
<path fill-rule="evenodd" clip-rule="evenodd" d="M53.4919 37.3924V46.7198C53.4919 47.0943 53.4544 47.4315 53.3232 47.7311C52.93 48.6864 51.9561 49.7727 50.3454 49.7727C48.3224 49.7727 47.4423 48.293 47.4423 45.8021V37.3736H42.61V46.6823C42.61 47.9372 42.7598 48.9861 43.0595 49.8665C43.3591 50.7466 43.7712 51.4583 44.2956 52.0202C44.82 52.5823 45.4382 53.0129 46.1687 53.2751C46.899 53.5374 47.7045 53.6686 48.566 53.6686C49.3338 53.6686 50.0083 53.5748 50.5888 53.3875C51.1695 53.2002 51.6939 52.9755 52.1059 52.7133C52.5366 52.4511 52.8925 52.1702 53.1734 51.8704C53.4544 51.5707 53.6792 51.2899 53.8478 51.0463L54.4658 53.3126H58.3803V37.3924H53.4919Z" fill="#FFFF00"/>
<path fill-rule="evenodd" clip-rule="evenodd" d="M14.9088 32.0545V37.3738H12.6425V41.0072H14.9088V47.4877C14.9088 49.6228 15.3397 51.2337 16.2573 52.2076C17.0628 53.0692 18.4487 53.6871 20.1532 53.6871C21.614 53.6871 22.1759 53.4624 22.8315 53.219V49.5293C22.7003 49.5853 22.3071 49.6603 21.82 49.6603C20.0969 49.6603 19.7037 48.5928 19.7037 46.6448V41.0072H22.7752V37.3738H19.7037V32.0545H14.9088Z" fill="#FFFF00"/>
<path fill-rule="evenodd" clip-rule="evenodd" d="M51.6563 32.0545L48.6783 36.3436H52.1247L56.3388 32.0545H51.6563Z" fill="#FFFF00"/>
</svg>
